<svg
  style="display:none;"
  xmlns="http://www.w3.org/2000/svg"
  viewBox="0 0 841.9 595.3"
>
  <symbol id="hero" viewBox="0 0 1510 674">
    <g fill="pink" fill-rule="evenodd">
    <path
        d="m216 229-1 1zm-5 4 3-1zm-10-4 2 1zm-5 0v2c0-1 2-2 0-2m-5-2-1-1c1-1 1 1 1 1m-26-4c0-1 3-2 5-1 1 1-3 2-5 1m-3 1-2 2c1 0 3 0 2-2m-105 202h1v-2l-1 1zm-1 16-1-1v1zm-3 8c3-1 2-4 2-7l-2 1zm-1 22 1 1c1-1 0-1-1-1m-1-28c-2 0 0-5 1-5zm-1 3v-1zm0 31c-1-2 0-3 1-4 0 1 1 4-1 4m0-22-2 9c-2-2 1-6 1-9zm-2 21-1-1c2-1 1 1 1 1m-1 4-1-1zm5-12c-3-1 0 6-4 5l5-23c-1 1-1 4-3 3l2-2c-2-9 4-14 4-20l-3 4c-2-3 2-6-1-9 4-1 4-6 5-8l-1-4v-4l2-3c-1-6 2-9 2-14 5-10 5-23 10-33 0-7 1-13 4-18l-1-3c5-9 5-22 10-30 0-8 3-15 4-23 4-3 3-9 5-14-4 1-9 2-11 1-5 5-10 3-15 6l-1-1-1 2c-6 2-12 1-17 5-11-1-21 6-33 7l-5-4c-3-6-6-13-6-19l-2-2-1-6c1-3 2-7 5-9l6-1c12 6 29-1 42-3 25-7 48-16 72-19 5-4 7-3 12-4l11-2c2-2 2 0 4-1v2c2 0 1-3 2-1 1-2 1-2 3-2v3c2-2 4-1 5-4 1 0 0 3 2 4l8-1c1 0 0 2 3 2 0 0 0 3 1 2v-3l3-1h6v3l3-1-1-2 2 3h-2c1 2 2 2 4 1s0-4 2-4v3l3 1v-3c2-1 1 2 1 3 2-2 6 1 8 0 1 2-1 1-1 2 1 1 1-2 3-1 2 0-1-1 0-1l4-1c1 2 1 4 2 3v-2c1 3 3 4 3 7l-5 2 1 4c-2 0-1-3-3-3-2 7-15 3-19 8-1 1-1-1-2-2-7 6-18 4-26 9l-2-2c-1 0-2 1-1 2-4 1-5 0-7 3-2-2-9 0-12 2-4-2-8 3-13 3-3 11-4 23-8 34l1 3c-4 11-6 24-9 36l-1 2v2c-1 4-4 8-3 14-4 11-7 23-9 35-3 5-2 12-6 16l-1 5c-2 16-8 29-11 44l-3 3c1 3 1 4-1 5 1 8-5 11-4 19l-4 4c0 1 3 1 1 2l-1-1-2 12c-3 5-7 9-9 16h-2l-2-5c-2 0-1 2-4 2 1-3 2-5 0-9 1-5 3-10 2-15 2-3 3-8 0-11z"
      />
    <path
        d="m294 362 1-1zm-5-1 1-1zm-7-6-2 1zm-31-61c-1 0 0 0 0 0zm-13 92v1h-1v-1zm-6 2v-1h-1zm-9 2-1-1v1zm-6 2v-1h-1v1zm-26 13c-1 0-1 0 0 0v1h-5c-4 4-12 3-17 6l1 2-14 1c-7-6-12-16-18-23 0-5 4-6 7-10 8 1 15 0 20-2-1-1-3-3-3-5h-1c1-2-2-4-2-7v1c-5-13 2-25 5-36-3-2-1-5-3-7 2 0 0-2 1-3 4 0 5-3 8-4 3-4 6-8 7-14 3-5 6-10 8-17-5-4-5-9-8-15l1-3c1-13 16-18 24-22 14-8 28-12 44-17 14-4 31-9 46-7 4-1 10-2 12 2 1 1 0-2 1-1 2 1 5 3 8 3 6 8 11 12 15 22-3 8-10 13-17 14-1-2-3-3-5-1-2-2-4-6-3-11-25-2-51 9-71 16l-10 3 4 7c-5 8-12 15-14 25 2-1 2-3 4-1l2-3c6 2 16-4 20-2 2-4 7-1 10-3l-1 1v1c9 1 19-3 24 6l-1 2 3 1c0 2-2 0-1 1 0 1-1 3-3 2 1 2 2 1 4 1 0 1-2 2 1 1-2 3-6 3-7 6-26 9-51 17-76 31-3 8-6 16-6 25-2 1-1 2-3 2l55-14 47-6c2 4 5 3 9 2 0 3 1 1 3 1v1c-1 2-2 3-4 2-1 1 1 2 1 3h-4v3l-15 5c-2 6-10 3-14 6h-1v2c-1 1-1-1-2-1v2c-3-2-7 0-8 2-1 1-1-1-2-1h-3c0 3 3 0 3 2-3 1-8 1-8 4v-2c-2 0-3 0-3 2l-3-1c0 2 2 1 1 3l-4 1-2-2v4l-3-3v3c-4-2-4 2-9 3l-1-3c-2 2 0 3-2 5-3 0-7 1-10 4-1-1-4-1-3 1-1 0-1-2-2-1v2c-4 0-6 0-7 2zm236-87v-1h-1v1zm-9 24c0-1 0-2-1-1v1zm-58-132 1 1h-1zm67 118h-1c-1 3-2 5-1 8-1 1-1-1-2-2-2 2 2 3 1 3l-3-1v5l-1-1v2c1 1 2 1 1-1h2l-15 24 1 3h-3l1 3c0 2-1 1-2 0 1 4-4 5-4 9l-1 1c-8 14-22 23-36 30-8 2-13 3-21 2-6-5-15-4-19-11-4-1-9-3-12-9 0 0 1 2-1 2l-3-10c-1-4-1-9-3-13v-10-7c-1-4 2-5 0-9 4-37 16-67 29-97 4-5 6-12 11-17l1-4 12-14c6-7 15-11 20-18 3 0 7-2 8-4l18-3 27 15c6 18 3 33 4 47-1 3-2 7-6 8-4-1-7 0-12-2-1-1-2-1-2-3-4 0-7-2-9-7l-4-1c2-9 2-19 2-29l-2-4c-16 10-24 25-34 38l-1 4-6 7-13 38-2 10-2 4c-3 14-5 26-5 41v8c0 3 0 9 2 13l2 8c15-6 22-18 32-29 5-8 13-14 17-24 7-8 13-17 18-27h1c4-8 8-16 14-22l1-5 3 1v3c1 2 3 0 3 2 1 2 0 0-1 0l1 4c-1 1-1-1-3-1l3 3c1-1 0-2 2-2v14c0 2-1 4-2 3 1 4-3 4-1 7l-1-1 2 2-2 1c2 3-2 3 0 7h-2c1 2 0 4-2 5 0 2 3 4 0 4v-1zm214-96-2 1v-1zm-2 1 1 1a359 359 0 0 0 -1 0l-1-1 1-1zm-3-11h2zm0-2c-1 0-2 0-2-2zm-1 5-1-1h-1l1 1zm-2-6c0 2-4 0-6 1 2-2 4-1 6-1zm-6 12h-1zm-1-12-1 1zm0 4c0-2-2-2-2 0zm-2 7c1-1 0-1-1-1v1zm3 6c0-3-5-4-4-1 2-2 2 1 4 1zm-6-5c0 2 2 2 2 1zm-1 2c1 1 1 4 2 2 0 0-1-3-2-2zm1 7h-1zm-2-5-1-1h-1l1 1zm-4-12 1-1zm3 17c1 1-1 0-2 1zm-4-7c1 2 5 0 4 0zm-1-15v-1h1v1zm0 18c0 2 4 1 4 0zm-3-17 2 1zm-1 1-2-1a433 433 0 0 0 2 1zm-2 18c0 2 2 0 1-1zm0-19-2-1 1 1zm-2 16 2-1zm-1-15 1-1zm-1 15s1 0 0 0zm-5-13v-1zm1-5s-3 0-2 1zm-1 25c2 1 6 0 7-1-2-1-5 0-7 1zm0 1c-1-2-5-1-5 0zm-8-22h1zm-3 17 1-1zm-1 6c0 2 4 0 4 0zm-1 1v-1h-1zm-2-24v-1h-1v1zm1 25c0-2-2-2-2-1zm-4 1 1-1v-1h-1zm-4 0c1 0 3 0 2-1zm-2 1 1-1zm-17-52v-1zm-1 2 1-1zm-1 5v-1h-1v1zm-2 2 1-1zm-1 4 1-1zm-16 147c1-1-1-2 0 0-1 0 0 1 0 0zm-7-93h-2v1c1 0 3 0 2-1zm-1 116 1-1zm-16-110-3 1c2 1 2 1 3-1zm-4 2c0-2-2-1-3 0zm-10 2c1 1 1 2 2 1zm-19-41v1c2 1 1-2 0-1zm-2 5-1-1zm-7 93v2c2 1 1-2 0-2zm123-115c3 2 8-1 12 0 0 2-4 1-5 2 2 1 3-1 4 1 2-1 2-1 2-3h2c1 1-1 0-1 1v1c2 0 5-2 5 1h-2l4 2v-2c2 1 3 0 2-2l3 2c-1 1-3 0-3 2l-3 1c1 2 4 0 5 1 0-2-2-1-1-3h5c1 1-1 1-1 2l1 1c3-2 7 0 9 1l1-1c1-1 2 2 2 0l3 1c1 0 2 0 1-1h1c0 2 2 0 2 2h-5c2 3 7 0 8 3l-5 1h1c0 2-2 0-2-1v2c-1 0-5 0-5 2-2-1-4 1-7-1-1 0 0 3-2 1 1 4 7-1 8 3 0-3 3-2 5-2v3c-1-1-8-1-9 2l-23 3c3 2 6 0 10 0-12 4-28 6-43 9-5 17-13 31-16 48-3 1-1 8-5 10l1 2c-2 0-3 6-2 9-3 2-4 7-3 9-7 12-7 28-13 40 0 0 2 1 0 2s1-2-1-2v11c-2 1-3 3-2 6-2 2-1 4-1 7h-2l1 2s-3-3-3 0c-1-1-2-4-5-3l-1-2c-1 0 0 2-2 1v-1c-4-3-8-6-12-12-1 0 1 2-1 2-4-8-2-15-1-23 4-31 16-63 25-90-2-1-3 2-4 1-1-2 2-1 2-2-2-1-4 2-7 1 1 2 3 1 4 1-2 2-7 4-10 1l-2 1c1 3 2 0 3 0 1 5-8 4-9 4-2 1-2 0-3-1 0 2 2 1 1 3-3 2-6 2-9 0l2 1-4 1v2l-1-1c-5 9-9 18-11 29-1 2 1 6-3 6 2 5 1 7-2 9 2 4 0 6 0 9-2-2-2 3-3 4-1 0-2-2-3 0-1-3-4-2-5-6-2 2-6-4-6-6h-2c-1-2 0-4-3-5-3-11-1-19 1-27l-2-1c-3-3-3-6-7-8v-2c-3-2-4-8-6-11 2-1 1 2 2 1-1-2 3-3 2-5 3-1 5 0 5-4 7-1 13-6 18-7 4-6 6-12 9-19 2 0 0 1 1 1 2-2-1-2 0-4 1-1 1 1 1 2l3-7-2-1c1-10 8-16 11-26l1 1c2 0 1-2 3-2 7 3 14 5 18 12l-8 27c10-2 25-9 38-13 2-2 3-4 3-8 1 0 1 1 2-1 4-6 6-14 9-21l-1-3h1l1-11c4-1 6-6 6-11 3 0 3-2 3-5l8-6c1-1 1 1 2 1 3-1 4 1 8 1 3 4 9 5 12 9-5 14-7 32-13 46l2 1 5-1 2 2v-2z"
      />
    <path
        d="m775 121c0 2-2 3-1 5 1-1 3-4 1-5m-2-7 1 1h-1zm0 2-1 2c0-1-1-2 1-2m-2 11v-1h-1v1zm-1 9 1 2s1-2-1-2m0 4-1 2c2 0 2 0 1-2m-1 3-1 1c1 0 2 0 1-1m-4-14v-1h-1v1zm-3 4 1 2s1-2-1-2m1 32v-1h-1v1zm-2-37v1l-1-1zm1 38v3c2 1 1-3 0-3m-4-24 1 2zm0 36 1 2zm-1-41-1 3c2 0 1-2 1-3m1 47v-1h-1v1zm-3-42h1l-1-2-1 1zm-2 2c2 0 2 3 0 3zm3 47-1 2c0-1 2-1 1-2m-5-49c0-2 2-2 1-4 2 0 1 3-1 4m3 54-1 3c2-1 2-2 1-3m-4-50c1-1 0-3 2-3 0 1 0 2-2 3m-1 1 2 1-1 1zm-1-4v-2c1 0 2 2 0 2m-3 7c-2 0 0-2 0-2zm0 14v-1h-1v1zm3 57-1 3c2 0 2-3 1-3m-4 5 1 3c1 0 1-3-1-3m-4-59v-1h-1v1zm3 79-1-1h-1l1 1zm-1-4a1100 1100 0 0 0 0 0m-6-75c-1-1 0-3 1-3 1 2-1 2-1 3m5 80v-1l-1 1v1zm0 6v-4h-2c2 1 1 3 2 4m-3 1 1-1v-1h-1zm-4-81h-1zm6 87c-1 1 0 3-2 3v-2zm-6-85-1 1zm-1 7v2zm3 85c2 0 1-2 0-2zm0-1-1-1h-1l1 1zm-5-82v-1h-1v1zm3 94h-1v1zm-9-74c-1-1-2 2 0 1zm-2 4 1 2c1 0 1-2-1-2m0 4v-1h-1v1zm4 90-1-2v1zm-1 9-2-1c1 0 2-1 2 1m-4 5 2-1zm1 4c-1 0-2-2-1-3zm-3-1c2 0 1 3 1 4h-2v-1c2 0 1-2 1-3m-4 8-1-2v2zm56-206 4-4c2 6 0 11-3 16v-2c-3 1 0 2 0 4l-3 13 1 1c-5 3-4 14-7 19 2 1 0-2 2-2 1 2-1 3-1 4h-2c0 2 2 1 2 2v2l-1-2-2 2c2 1 1 4 1 6-2 0 0-2-1-3-3 2 3 6-1 7l-1-2c0 2 0 4-2 6 2 1 2 3 0 4v-2l-1 2 2 2c0 1 0 3-2 3v-3c-2 4-3 10-2 14h-2l1 4c-2 1 0-1-1-1-2 1 0 6-3 7 1 4-1 7-1 10-1-1 1-2-1-3-3 2 3 6-2 8 0-2 2-2 0-4 0 1 0 3-2 1l3 4-4 2 1-2c-2 0-1 2-2 3 2 1 4-1 4-2 1 2-1 6-2 8v-4c0-1-2 2-1-1-2 3 2 7 0 10h-1v6h-1c-2 1-1 3-1 5l-1-1-1 3h-1c-1-1 1-1 1-2-2 0-2 3-1 2v3l2 1c-1 1-2 1-1 4l-2-2c-1 1 1 3 1 4-2 1-2-1-3-1-1 1 2 1 1 3-1 0 0 3-2 2 4 3-2 6-1 9 0 1-2 0-2 2v1l2-1c0 2-2 2-2 3l1 1h-2l2 4c-1 1-1-1-3-1v5h-2l2 2c1 3-2 4-2 7-2-1-2 1-2 3l-1 1 1 3c-3-1-4 4-5 8v-1l-1 2c-2-1-3 3-1 3 0 3-3 4-5 3v2c-4 2-8 2-12 1-2 0-2 2-5 2-1-1-3 0-5-2l-1 1c-8 0-10-7-13-14-7-31-11-77-19-105-2 0-3 2-2 4h-2c1 2 1 4-1 5l1 2c-7 12-8 29-14 42 0 7-3 16-5 22 0 5-1 9-3 13 1 2 0 6-2 7 1 8-3 13-3 20l-2 1c1 5-1 8-3 11l-7 1c-3-3-9-4-14-7 3-5 0-11 1-14l-2-1c1-21 8-36 10-56 6-17 8-38 16-54 0-3 2-3 1-6 4-2 3-7 5-10 4-2 5-5 7-7 4-1 7-5 12-5h14c2-2 5-1 7-2 3 4 7 6 8 11l1 1 1 3c-1 2 1 4 3 6l-2 1c3 1 3 5 3 7l2 2c-1 7 3 13 4 17 2 11 0 19 4 27 1 2 0 1-1 2 1 2 2 4 0 6l2-1 4 30a261 261 0 0 0 9-35c2-9 6-17 7-28h2c-1-9 4-18 5-27l2-1 1 1-1-1-1-1 3-1c-1-2-2-6 0-7v4c2-1 1-4 2-6l1 2 1-2-2-4v3c-3-3 0-7 1-10l1 1c1-1 2-2 1-3 2 3 4-2 4 1v-3h-1l1-7c3-2 4-5 3-9l2 1c1-2 0-5 3-6l-1 3c4-2 1-8 4-10v3l1 1c2-1 0-3 2-2v1c4-5 5-13 7-19v5c2 0 0-3 1-2h1c1 2-1 4 1 6 1-2 2-5 1-8 1-5 6-6 7-11l1 2v-5l1 4c2 0-1-4 2-4zm55 180 1-1zm0 0-1 1zm-4 2-1 1c1 0 2 0 1-1m-4 3v-1h-1v1zm26-89c6-13 18-34 11-53l-2-1c-9-5-18-4-28-2-20 27-33 63-35 102l-1 1c2 7 0 16 3 24 14-7 22-19 31-29 7-14 16-27 21-42m-64-34 8-16h2c1 0-2-2-1-3l1 2 1-2c3-2-1-3 1-4l1 1-1 1 1-1c10-13 15-31 36-34 7 2 15 7 22 11 1 6-4 5-6 8l6 2 1 1 12 4c9 4 19 13 22 23 7 23-10 47-16 65h-1c-1 7-7 12-8 19-2-1-1 1-2 1-4 10-12 17-17 26-3-1-3 7-6 6l-1 3-1-2c-1 2-1 3-4 4v2c-4 3-7 6-13 8l-1-2c-1 1 1 3 1 4l-2-1c-2 0-1 2-2 3v-2c-2 0-1 2-2 3h-2c-2 0 0-2-1-2s0 2-2 2c-7 1-12-1-17-5l-2 1c-2-3-4-6-8-6l-14-13c-4-11-5-22-4-32v-11c2-10 3-21 7-28 0-6 3-9 3-14h2c-1-4 3-8 3-13 1 1 2 0 2-1l-1-3h2c-1-2 0-4 1-5 0 3 2 0 0 0m263 2c0-1 0-2-1-1v1zm-3-7c0-1 1-2 2-1zm-3 1v1h-1v-1zm-3 1 1-2c1 1-1 0-1 2zm-4 1 1 2zm-1 10s-1 2 1 2zm-4-11c0-2 1-1 2-1zm2 4-2 2zm-2 4-1 1c1 0 2 0 1-1zm1 10h-2c1 1-1 2 1 2-1-2 2-1 1-2zm-4-14 3-2zm-2 17c-1 0-3 0-2 2 1-1 4-2 2-2zm0-14-1-3-4 3c2 0 3-2 5 0zm-5 17h-1v2c2 0 2-1 1-2zm-2-15v-1zm1 23 1-2zm-2-28-1 1v-1zm0 22h1zm-3 1c-1 1 1 3 1 1h1v-2l-1 2zm2 6-3 2zm-5-25c0-3 3-2 4-3zm1 4c0 1-2 0-1 2zm0 24-1-1h2c0 2-1 2-1 1zm-2-30h-1l-1-1 1-1zm-1 8v-1zm-3-2c0-2 2-4 5-4zm-2-3c-2 0-1-2 1-3zm1 4-2-1h1c1-1 1 0 1 1zm-1 4v-1h-1v1zm-2-1-3 1zm-2-1-1-1-2 2zm-5 2c0 1-2 1-1 2zm1 29c-1 1-3 2-1 3zm-2-2h-1l1 1zm-3-26 1 3v-3l1-1c-1-1-1 0-1 1zm0 28v-1zm1 5v1h-1v-1zm-1-30-1-1-1 1v2zm6-1 2-2c-4 2-9 5-12 9 5-1 6-6 10-7 1 1 1 0 0 0zm-10 2c1 1-2 1-2 3 2 0 4-2 2-3zm1 28a1274 1274 0 0 1 0 0zm-3-21-1-1v1zm-1-3-1 1zm0 25-1 2zm-4-25c2 3-2 2-1 5 1-1 4-4 1-5zm0 7v-1l-1-1-1 3c1 0 1-2 2-1zm-2-5v-1h-1zm0 3c-1 0-3 0-2 2zm-3 3 1 2zm-1 32 1-1 1-2-1 2zm1-33c-2 0-4 2-4 4zm-3 5-1 1v1zm-1-5c-2 0-2 2-1 2zm0 4c-1-1-5 2-4 4zm-5 38-1 1c1 1 2-4 1-1zm-17-77 1-1zm-1 3c-1 1-3 3-1 3zm-1 4c-1 0-2 0-1 1zm4 86c-1-1-1-2-2-1l1 1zm-7-81 1-1v-2 2s-2 0-1 1zm-1 3-1 3zm-2 7v-1l-1 1v1zm-2 3-1 2zm7 72h-2c0 1-3 2-3 4zm-9-66-1 2v1h-1c-1 2-2 3-1 6h-1c-1 4-4 6-3 10-2 1-2 4-1 4l1-4c1-3 4-6 4-10l2-6v-1h1v-2l1-1a695 695 0 0 0 -1 1zm-10 26v2c-1 2-3 4-3 7 2-2 3-4 3-7v-2l1-1 1-1c-1 0-2 0-1 1zm0 58c-1 0-2-1-2 1zm-3-49c-1 4-4 7-3 11 1-4 4-8 3-11zm-3 53 1-1-1 1c-2 0 0 1 0 0zm-3 1c-1-1-2 1-1 1 0-1 3 0 1-1zm123-111 3 1v2h-3v2c-4 0-8 2-10 5h2l7-5v2l4-3c-10 10-27 18-37 27 1 2 2-2 3-1-1 3-4 3-5 5-2-2 2-2 1-3-2-1-3 4-6 4 0 2 1 3-1 3v-2c-2 0-1 1-1 3l-6 4 2-2c-1-2-3 2-4 2-1 2 1 1 1 3h-2c-2-3-3 2-5 2 2 1 2-2 5-2l-8 8-1-2c-2 0-1 1 0 3l-5 5c-1 0-2-2-2 0 3 2-3 2-2 4h-1l-1 2-2-1c2 2 0 4-3 5 1-2-1-1 0 0l-2 1h1l-2 1v2c-3 0-4 5-6 4-2 2-5 9-8 7l2-1c-1-1-2 0-2 1l-1 1 1 1c-1 3-5 5-8 7l1-1h-2l1 1c0 1 0 3-2 3v-2c-2 0 0 3-1 4-2 0-1-3-2-2v3l-1 1-1-1c0 2-1 4-4 5v-1l1-1c0-1-2 0-1 1v2l-3 1c-7 8-18 8-27 3-2-4-5-5-9-7-1-4-5-4-6-6 5-42 24-76 37-113 1-1 0-2 2-2 7-26 21-48 29-73 2-1 4-3 4-5l6-2 1 2c7 0 12 8 17 12 1 1-1 1-1 2 1 1 1-2 2 0s-1 3-2 4l-10 29-2 2 1 2c-3 2-5 6-5 11h-2c-1 7-4 13-7 18-1 10-7 16-9 26-8 16-14 36-21 54 4-2 8-7 11-10a855 855 0 0 1 66-53c1 1 1-1 2-1 1 2-2 2-2 5-1 0-1-2-2-1s2 1 2 2l3-1-1 2c4-1 6-3 8-5 1-1 0 2 2 1-1-2 2-4 4-4 0 1-2 1 0 3l1-4c1 1 2 0 2-1h-1c3-2 7-1 8-5 1 2 0 3-1 4 1 0 2 0 1 2 4-2 7-5 11-6v2c1-1 2-3 4-2-2 4-8 3-8 8 2 0 5-7 9-4 1-1 0-3 3-3v2l10-4c0 2-3 2-2 5-2 0-1-1-1-1-1 0-2 2-3 1-2 0 0 1 1 1l-3 1c-2 0 1 2-1 2-1-2-3-2-5-1z"
      />
    <path
        d="m1105 118v-1h-1v1zm-32 22-6-3c-10 18-16 39-19 61-2 7-4 14-4 22v8c1 6 0 15 3 22 11-3 16-10 23-16 15-16 25-35 36-54 9-20 21-40 22-65l-1-4c-12 0-19 6-27 12-11 1-17 15-27 17m30-49c24-5 38 8 51 22 7 19-1 30-3 44l-2 2c-8 22-19 39-29 59-5 4-8 9-10 15-2 2-5 4-6 7-2 0-1 2-2 2-2 6-9 7-9 12-8 8-17 15-28 18-12 3-23-2-33-7-5-5-11-11-14-19l-2-7c-1-16-1-33 3-47 7-35 17-66 38-90 3-2 7-6 12-5 4 5 10 3 14 7 5-5 14-8 20-13m171 60c-1-2-3-2-2 0zm-19-113 1-1zm4 114v-1l-1 1zm-1 0-2 2c0-1 2 0 2-2zm-3 5-1-1-1-1zm1 71 1-1zm-12-188c-1 0-2 0-1 2 0-1 2-1 1-2zm4 114c-1 0-2 1-1 2 0-1 2 0 1-2zm-2 1c-2 1-3 0-2 2 1 0 3 0 2-2zm-9-112 3-2v1zm-2 1 2-1c1 1-1 1-2 1zm-2 3c-2 0-1-2 0-2zm-2 0v1l-1 1-1-1 1-1zm-14 19 1-1zm-1 1s0-1 0 0c-1 1 0 1 0 0zm-7 9-2 2c0-2 2-3 3-5zm-3 4v-2h1c1 1-1 1-1 2zm-2 4 2-2c-2 0-2 2-2 2-1 1 0 1 0 0zm1 3-1 2-2 2-1 1c0 1-2 2 0 3v-3c1 1 1 0 1-1l2-2 1-2 3-4c-2 1-3 2-3 4zm-2-1c-2 1-4 4-3 6zm1 79v-2l-1 1zm-2 1v1h-1v-1zm-11-65v1h-1v-1zm86 50c-4 2-6 3-10 3 1-2 4-1 4-3-2-1-4 2-8 2-2-1-1-1-1-3-1 1-2 1-1 3 0 2 1-1 1 1h-3c1 1 0 2-1 1-6-4-13 6-19 4-1-1 0-1 1-3v2l3-1-4-1-16 6v-2c0 2-2 3-3 3 0-1 2-2 0-3-6 1-9 5-17 6l-1-1c-2 0-1 2-2 2v-2l-3-1v2h-1c1 2 0 2-2 2-6 22-14 44-13 69 30-10 44-32 66-48 9-11 19-20 27-32l-5 2c3-2 7-4 8-8zm-115 11s0 1 0 0zm103 59c-1 2-4 1-3 4-4 0-4 6-8 5v2c-5 2-7 6-11 9v-2c-1 0-2 2 0 2l-1 1c-3 1-4 2-5 4-6 2-11 6-14 10-10 3-25 13-38 7 0 1 0 2-2 2l-1-2c-8-3-15-10-23-15h2c0-2-2-2-3-4-1 0 1 3-1 2l-6-9c-6-33 4-52 11-75v2c1 0 3-3 0-3l3-3c4-17 13-32 20-48l1 1c2-1-1-4 2-5l-1 3c2 0 1-2 2-3h-1l1-2v1l4-3c0-2-2-2-1-3 3-1 3-3 2-5 2 3 1-1 4-1v1c-2 1-3 4-4 6 2 0 3-4 4-6l1-1h-1c1-5 4-11 8-13 2-1 3-2 3-4l3-3h-2c2-3 4-9 9-9v-3c2 0 0 1 1 1 2 0 2-2 4-3l-1-2c1-1 1 1 2 2-7 7-12 15-17 22 5-3 8-12 14-17 2-4 7-6 9-11l10-7c-4 0-8 4-10 7-2 1-4 6-6 2 2 1 1-3 4-4l-1-2 3 1 9-8c1 1 2-2 3-3 4 1 11-5 18-3v-1c4-1 7 3 12 3 2 3 5 4 6 7 3 2 6 3 8 6 1 8-7 19-14 17-2-1-2-3-4-2-1-2-3-2-2-5l-8 3c-21 15-32 35-44 56v2l-10 19v2c-3 4-4 10-6 14 14-6 23-15 38-19 9-6 18-8 29-14 4 1 5-2 9-2l1-2c9-1 21-8 33-11 0 2 2 1 3 2 5 0 6 5 11 5l15 16c-2 3-3 6-6 7l-1 2c-21 25-37 54-62 76v1h-2l-2 3c0-2-2 1 0 0z"
      />
    <path
        d="m1508 26c-1 0 0-2-2-3 3 1 2-2 2-4 3 2-1 4 0 7zm-3 5 1-2c1 0 1 2-1 2zm-2 8v-1-1c1 0 2 2 0 2zm0 3v-3zm-2-13v-1h-1zm0 15-1 1zm-1-22-1 2c1 1 2-1 1-2zm0 8c-1 0-2 3 0 3zm-1 19v-2c1-1 2 2 0 2zm-1-18c-1-1-2 2 0 1zm1 4-2 2c2-1 3-1 2-2zm-2 4 1-1zm1 12v-2c2 0 1 2 0 2zm-2-24 1-1zm1 5-1 1v2zm-2 0c0-1-1 0 0 0 0 1 1 0 0 0zm-1 13h1v-2l-1 1zm-1-5c2 0 2-1 2-2l1-1-1-1v2zm2 5-1 2c-1-1 2 0 1-2zm-5 9 1-1zm-1 2h1v-1h-1zm-1 2 1-1zm1 13-1-1zm-2-12 1 1zm0-8v-1h-1v1zm-1 11v-2zm7-20v-1l-9 18c5-5 6-11 9-17zm-6 21-1-1c0 1-2 1-1 2s1-1 2-1zm-2 4v-1h-1v1zm0-6-1-1-1 3zm-2-2v-1h-1v1zm1 9-1 2zm-2 4h-1v1zm-1-6-2 4c2-1 3-2 2-4zm-2 8c1 2 4 0 4-1zm-1-2s-2 2 0 3c0-1 3-3 0-3zm-5 7 2 2c0-1 0-2-2-2zm-4 3v1c2 1 1-2 0-1zm-3 18h1v-1-1h-1l-1 1zm-1-10v-1h-1v1zm-1 2h-1v1zm0 8c1-1 0-1-1-2v2zm-3-5-1 2c2 1 2-1 1-2zm-2 3-1 2c2 1 3-1 1-2zm-1 5v-1h-1v1zm-8 19 1-1zm1-5v-1h-1v1zm-2 3c-2 1-2 0-3 2 2 0 3-1 3-2zm-3 6h1v-1-1h-1zm-1 0 3 3zm-2 8c2 1 1-1 0-1 1 0 1 0 0 0zm1-7-2 1c2 0 3 0 2-1zm-6 18c2 0 2-2 2-3 1 0-1-2 0 0zm0-10c2 3-2 2-2 5 2 0 5-4 2-5zm-5-44-1-1-1 1zm2 62v-1zm0-2 1-3-2 1zm-2 2v2c2 1 1-2 0-2zm-5-54-1-2-1 1 1 1zm1 52v-1h-1v1zm3 1-1-1h2c-1-3 1-3 1-5-3 3-5 7-6 11zm-8-55c3 0 1-1 1-2v-2l-1 1zm-1 4v-1h-1v1zm3 60 1 1 1-1c-2 0-1-2-3-1v4zm-1 11h-1a4182 4182 0 0 1 1 0zm0-4v-1h-1v1zm-3-66-2-1v3c1 0 0-2 2-2zm2 67h-1v1c1 0 2 0 1-1zm-7-65h1v-1-1h-1zm-1 14 2-3c0 2 0 2-2 3zm3 59c0 2 2 0 1 0zm-3-58h-1v-1zm2 60c0 2 0 4 2 4zm-1-6c2-2 4-5 3-7 0 2-2 2-3 4zm-3-61v-1h-1v1zm6 75-3 2c-1-2 1-2 1-3zm-4-72-1-3-4 3c2-2 2 1 5 0zm-5 5 1-1zm-3 4s-1 0 0 0zm-1-7 1-1zm2 68 1-1zm-2-60v-1l-1 1v1zm6 69c2 0 1-4 4-3-1 2-1 4-3 5l-1-1c-1 1-4 1-3 4l-3 1c2-2 2-6 5-7-1-3 1-4 2-6 2 3-1 4-1 7zm-5 16c-1-3 0-2 1-4 1 1 0 3-1 4zm-3-87c-1 1-2 1-2 3 1-1 2-1 2-3zm1 88c0-1 2-1 2 1zm-4-89-1 2c2 1 2-1 1-2zm5 81-2 1 2-3c2 0-1 1 0 2zm-6-77v-1h-1v1zm4 72c-1 0-3 2-1 3zm-5-68c-1 0-2 1-1 2-1-1 2 0 1-2zm-1 79v-1h-1v1zm0 8v-1h-1v1zm-1 3h-1c2 1-2 2 0 4zm-7-80c-1 1-2 1-1 2zm3 95-1 1v-1zm-1-7v-1h-1zm2 12c-1-1-2-1-2-3 1-1 3 2 2 3zm-1-8c-1-2-3-2-3 0zm-2-4-1-1h-1l1 1zm-1 18c-1-2 0-2 1-2zm-1-17-1 2c1-1 2-1 1-2zm-1 12 1-1zm-1 0-1 2zm-2-4-1 1c1 0 2 0 1-1zm0 22h-1zm-1-10c3 0 2-3 1-4h2c-1-3-3 1-4 2 2 1 1 1 1 2zm-3-94c-2 0-2 1-3 2 2 0 2-1 3-2zm2 87-1 1v1c1-1 2-1 1-2zm-1 8h2l-1-1h-1c1 0 1 0 0 0zm-9-175c-1 0-2 0-2 2zm3 84-1 2c1 0 2-1 1-2zm6 97v-2l-2 1zm-11-178c0 2 2 0 1 0zm2 85 1-1zm-5-76h2v-1h-1-1zm-1 7h1v-1-1h-1zm8 170v-1h-1a5718 5718 0 0 0 1 1zm-1 9 1-1zm-8-173h-1v3zm7 168-1 1zm-10-162c0 1 0 2 1 1zm9 164-1 3c1 0 2-1 1-3zm0 13v1h-1v-1zm-2-15-1 2zm-8-146-1-4h1l-1-1v1c0 1-2 4 1 4zm6 168c1-1 0-3 2-3 0 1 0 2-2 3zm-8-158-1-2v4zm8 151-2 2c2 0 2-1 2-2zm-10-143h-2v2c2 0 2 0 2-2zm6 143-1 2zm0 15c1 2-2 1-1-1zm-4 9 1 1-1 1-1-1zm-3-4-1-1-1 1zm1 6v2l-3-1zm-4 2 1-1c1 1 0 1-1 1zm-3-4-1-2v2zm-1 6c-1 1-1-1-3-1l1 3c1 1 3 0 2-2zm-5 10c2 1 3-2 2-3l2-2-2-1v3c-1 1-2 1-2 3zm-2 2v2c-1 1-1 0-1-2zm-4-6v4c0-1 2-3 0-4zm-4 16h-1zm78-149c3-5 5-11 9-15v-4l1-2s-2 0-1 2c-8 13-16 29-23 45 4 0 3-5 5-7 1 5-3 10-5 14 2 2 2-2 4-1l-3 3-1-1-2 7h1l-3 6 1-3c-3 0 0 2-1 3l-4 1 1 3c-1 0-1-2-2-1l-1-2c1 0 0-1 0 0l-2 4h4c0 2-3 3-1 5h-2v6c-4 2-2 10-8 10l2 1c-3 2-1 9-6 11l3-5c-2-1-1-2-1-4 1-1 2-1 1-2l-1 2c-6 9-7 21-13 30l1-5c-2 1-1 4-3 5l2 4h-2c0-2 2-2 0-2l-2 5c1 1 3 0 2 2-2-1-3 2-5 0l-1-1c1 0 2 0 1-1l-1 1v1l2 2v5c-2-1-4 0-6 1v-2h-2c0 2 2 2 2 3 1 1-3 3 0 4l-2 1v3l-2-1c2 4-2 7-4 10-2-3-1-9 0-13-2-1 0 5-3 5-1 6-3 8-3 13-4-1 1-6 0-8l-1-1c-1 4-1 8-4 9-1-1 0-3-2-4 5-32 18-58 27-87l2-1c4-15 13-28 18-44l1-1c15-33 33-64 49-95l4-6 1-4v-1c-2 2-2 3-1 5l-1 1-1-2c0-1-4-1-3 2 0 1 2-2 2 1h-2c1 1 0 4-1 5-2 0 0-1-1-2v3c-2 1-3 6-5 3 1 1 1 5-3 5v-3c-1 0 0 2-2 1 0-1 2-1 1-3l-2 3c0 2 3 1 3 2l-2 1v2l2-1c-1 2-3 4-5 4 1 2-1 5-3 6v-2c-2 1-1 2-1 3-1 1-1 4-4 3l-1 5c-3 0-1 1-2 2-2 0-1-1-2-2l-3 3h3c-2 1-2 6-7 5v4h-1c-1 1 0 4-2 4v-3h-1l-1 3-2-1c-2 0 0 2-1 3h2c-2 5-5 6-9 10-2 8-12 9-16 15-11-2-20-6-30-11-4-6-1-14-2-20 8-36 14-71 28-102l9-5c8 2 14 10 21 12l-1 6h-4c-5 7-5 16-10 22 3 5-3 7-1 10-3 6-3 14-7 20l1 2c-2 0 0 6-3 4 0 2 2 1 2 3-2 4-3 9-3 15-2 1-2 5-3 9 10-8 18-22 28-32l2-4c2 0 4-3 4-6 6-3 7-11 12-13 6-10 15-17 20-27 6-2 10-9 14-14 8-5 12-13 19-19v-2c9-8 17-16 27-22 4 0 6 4 10 4 3 4 6 4 8 8h1c3 3 4 8 0 10v5h-2c1 2 2 2 1 3l-1-1c-1 2 1 4-2 5l2 1c0 2-1 0-2 0-2 4-2 10-5 11 1 4-2 5-2 8-2-1-3 2-3 5h-2c2 2 0 4-1 7-1-1-1 3-3 3l1 2h-3c4 3-2 3-1 7l-3-1-1 6c-1 1 0-2-2-1 0 2 1 4-2 4-2 1 1 1 0 2-1-1-1 0-1 2l-2 2c0 1 2 1 1 2-4-1-2 5-5 5 0 1 2 0 2 2-2 0-3 2-5 1 1 2 2 2 1 3-1 0 0-2-2-1v3l-4 3h2v2h-3c-1 1 3 2 1 3 0 2-1 0-2 0l1 2c-1 0-3 0-2 1h1l-2 4-4 2c1 1 2 0 2-1 1 2-1 5-3 5 2 2-1 5-3 4v5c-2 0-3 3-3 5-1 1-1 0-2-1 0 3-2 4-3 6l3-1c0 3-2 1-3 3l1 2-5 5 1 3-2-2c-1 3-2 10-6 7-2 1-2 2-2 3l1 1 4-2c-1 1-2 3-4 3l1 2c0 2-3 2-3 4l-1-2c-2 0-3 2-2 3l1-1 2 1c-3 2-3 5-4 8-2 1-2 0-3-1-1 1-1 3-3 2v2h-1zm-1119 369v1h-1v-1zm-3 6-1-2zm-2-2 1-1zm-1 7h-1zm-1-8c2-1 2 0 2 1l-2 1c-1-1 2-1 0-2zm-2-2v-1zm-1 3-1 1zm-5 8h1v-1zm0-4c0-1-1 0 0 0 0 2 1 0 0 0zm0 4h-1l1 1zm-2 0-1 1c1 0 2 0 1-1zm-3 2h-1zm-9 4v-1zm-2 1v-1zm-10 7c1 0-1 1 1 1 0 0 1-2-1-1zm-3-2v-1zm-3 1 1-1zm-2 1c1-1-1-2 0 0zm-4 8v-1h-1v1zm-35-9 1-2zm-1 1 1-1zm18-63c3-7 6-13 7-22-21 11-29 33-31 57 9-11 16-24 24-35zm-13 53-6 9 3 7c21-12 45-24 69-31l15-3v1l-4 2 4-1c-1 2-4 3-5 1-1 1 1 3-1 3l1 2-1-1v2l-1-1c0 1-2 0-1 2 1 1 5-4 7-1-1 0-3 0-2 1h-3c0 2-2 2-4 3v1c2 0 4-2 6-1-3 0-4 3-6 2l-1 2-1-2v2l-1 1v-1c-2 0-2 0-1 2-1-1-2 2-3 0-2 3-5 2-8 5l-1-1c0-1 0 0 0 0h-1v1h-2l1 2-2 1c-1-1 1-1 1-2-3-1-1 2-3 3-1 1-1-1-1-1v2h-1l-1-1c-4 6-13 6-20 12l-6 3-2 2v-1c-1-1-1 0-1 2v-2c-2 0-1 3-2 1v3l-1-2-1 2c-1-2-2 3-3 1l-1 1-1-1-2 3c6 7 12 14 15 24-1 2-4 3-6 3-4 1-6 3-10 3l-2 1c-3-2-7-3-9-8 3-4-3-7-4-11l-16 9c-5 1-9 5-15 6l-12 1-5-3 1-1-8-2-1-3-1 1v-6c10-15 25-28 39-41-1-3-1-8-3-11l1-2c-2-3-1-5-1-9 0-21 6-36 13-51 9-11 15-23 33-26 8 0 13 7 20 8l4 6-1 2c2 16-7 25-11 37-4 4-5 11-10 16l-7 8c1 3-3 4-3 7l-1 2c-1-2-2 1-2 2zm218-129h1zm-55 39h-1zm-10 11 2-2v2zm-15 24v-2l1 1zm-4 28c-2-1 0-2-1-4zm-11 88c2 0 1-1 1-2 1 0-1-2 0 0zm1-23c-1 3-1 6-3 8 0-3 2-5 3-8m-11 20 1 3c1 0 1-3-1-3m-2 0 1-1zm-6 25c0 2 1 1 2 1zm16-32c2-3 2-7 5-10l1 3c-1 0-2 0-1-1l-1 2c3 4-1 8-1 12 2 0 1-4 2-5 1 2 0 3-1 4h2c0 1-1 3-1 1l-3 20 2 1 1-2h5c12-6 32-16 44-27l-2-2v1c-4 1-9-8-12-12h-2c-4-4-2-11-3-17 6-27 16-52 23-78l2-2c2 2 4-1 6-1 7 5 14 8 19 16-6 12-7 26-12 38-3 17-11 31-10 50 13-9 25-22 37-33 19-22 37-44 47-73 5-11 8-29 3-43-12-4-22-2-33 0-4 0-9 3-11 1l-2 3c-11 3-20 9-28 14l-8 7c-11 8-19 17-26 27-6 10-9 21-12 33l1 2c2 0 2 3 4 3-1 5-4 8-8 9-1 0-4-1-3-3-12-4-12-18-9-29-2 0 0 3-2 4-1-6 3-11 2-16h2c-1-1-2-3 0-3v1l1-2 4-6c-2 0-2 4-4 5 3-8 8-15 14-21 0 2-2 1-1 3-4 3-6 7-9 11 3-1 6-7 9-11l3-4 2-2h-1c-1 0-1-2 1-2l-1 1c3 0 2-2 4-2-2-2 1-3 2-5l1 1c1-4 4-7 7-8 0-3 5-3 5-8h4v-2c13-8 22-17 37-22-1-1-3 0-2-2 2 1 2 1 3-1 3 0 7 0 9-2 6 1 11-2 17-2l19 2c2 1 3 3 5 3l11 5c10 7 19 18 25 29 4 15 2 33-4 46l1 3a314 314 0 0 1 -48 74c-14 11-22 23-37 33-3 3-6 8-10 8-7 9-15 13-25 18-7 6-14 10-24 12-1 3-8 2-10 4-12 3-24-1-32-10-2 0-2-1-3-2v-2c-2 0-5-1-7-3 0-3-4-7 0-9v-4l1 1c0-4 4-6 3-11l2-1c-2-4 2-6 3-10v4l1-3c2 1 0 3 0 4 2-1 3-2 1-4 3 0 2-7 5-10 1 3 0 4-1 6 1 1 1-3 2-2z"
      />
    <path
        d="m710 548h-1v1zm-52-69h-2v2zm-5-7c-1-1 0-2 1-2 1 1 0 1-1 2zm1 2s-1 0 0 0c-2 0 0 2 0 0zm4 100h-1zm-7-101 2-1zm3 102-1-1 1 2zm-5-88h-1v-1zm-4 2c1-3 3-5 6-6 0 2-2 2-3 3-1 2-1 3-3 3zm0 1h-2v-1zm-2 0c-1 3-3 4-5 5 0-2 3-3 5-5zm-7 10 4-5c4 0 8-8 12-9-4 5-10 11-16 14zm-3-8 15-13c-4 5-9 9-15 13zm-1 12c-1-2 2-3 4-4 0 2-3 2-4 4zm10-16c-1 4-6 6-11 9 3-4 7-6 11-9zm-12 10v-1h1c1 1 0 1-1 1zm0 0c0 1 0 1 0 0zm-2 3 1-2c1 1-1 1-1 2zm-1-3c1-3 4-4 6-6zm84 54c-2 1-4 1-5 3l-1-2-1 5c-6 3-11 1-15 4-1 1-1-1-1-1l-1 3c-2 2-2 0-3-1-2-1 0 1-1 2s-3-1-2 1c-1 1-2-1-3-2-2 0 0 3-2 3 1-2-2-2-3-2 0 2 2 0 2 2-1-1-5 3-5-1l-1 3c-3-1 0 1-2 2l-2-4v3c-2-1-2 1-4 1h1c-1 2-2-1-3 0v2c-1 1-1-1-2-1h-1l-1 4-16 7v2c-3-2-8 6-11 2v2c-3 0-6 3-8 4-13 4-21 12-33 15l-3 3-22 11c-7 4-16 7-21 13l-5 1v-1c-1 1-1 2-3 2-4-5-8-12-8-20h1c-3-4 4-4 5-9 0 0-1 2-1 0 26-15 54-32 87-43 0-1 3 0 4-2h2c24-7 63-19 90-17zm-59-75c-1-1-3 1-3 2h-1l7-8v-4c7-6 10-14 13-23h-8-1c-13 3-25 7-38 12-1 1-4 1-5 3-12 4-23 10-33 17-4 2-12 6-15 10l6 8-20 33c1 1 3 0 3-2l42-14c10-3 19-5 28-3l1-2c2 0 0 2 1 2h10l-1 1c4 2 6 1 11 2 0 2 3 4 5 4 1 2 2 6 4 7l2 5c-2 0-1 2-1 3-38 1-74 16-105 31l-1 6c1 2 3-2 2 0-2 1 0 3 1 4-7 8-17 14-28 19v3l-6 2c-3-4-8-4-10-8 0-2-4-6-4-9-4-4-2-11-2-16 7-16 14-31 23-46l-5-2c-3-5-3-10-7-15 0-2 0-5-3-6 1-3 3-5 3-9 37-32 78-57 125-69l3 1c1-2 6-3 8-2l2-1c1-1 1 1 2 1 6-2 11 1 14 0l2 2c13 3 16 21 20 33 1 3-3 5-2 8h-2c-1 5-6 7-9 12-5 1-11 6-15 9-4-1-7 5-12 7 0-2 3-2 2-5-1-1-1 3-4 2l3-3c-5 2-7 7-11 9 0-5 5-6 6-9z"
      />
    <path
        d="m785 553-2 2c1 0 2 0 2-2m-2 3h-2zm-1-3-6 3c2 0 6-1 6-3m-16 10c2 0 4 0 3-3l-3 3c0 1 0 1 0 0m-3 2v1c1 0 1 2 2 0 2 1 0-1 0 0l-1-1 1-2c-1 1-2 1-1 2zm0 4v-1h-1zm-8 2a450 450 0 0 1 1-2h-1zm-4 7c-2 1-2 1-2-1zm-3-2c1-1 3-1 3-3 1 1 2 0 2-1l-2 1c-1 1-5 2-3 3m-1 4-2 2v-2zm-6-6h1v-1-1h-1zm-3 8c1 1-2 0-1 2 1 0 3-2 1-2m-2 5c1 1-1 2-2 2 0-1 2-1 1-2zm-6 1c-2 0-2 1-3 2 2 0 3 0 3-2m-8 7c-1 0-3 0-3 2zm-5 4v-2zm-2 1-1 1s2 0 1-1m-5-23v-1zm0 22v-1h-1v1zm-3 8 1-1c1 0 2 0 1-1-1 0-2 0-1 1-1 0-2 0-1 1m-2 5 2-2c0 2 0 2-2 2m-1-10 3-1c-2-1-4 0-4 1zm-1 5 1-1zm-1-2v-1h-1zm-1-20h-1v1c1 0 2 0 1-1m-5 3-1 1v1zm-2 22 1 2zm0 9v1h-1l-1-1zm0-10-1-2c0 2-3 3-1 4 1 0 0-3 2-2m-6 11 1-1zm-1-3h2l-1-2-1 1zm0-18v-1h-1v1zm-1 20v-2h-2v4c1 0 0-3 2-2m-5-16-2 1c1 1 2 0 2-1m-3 3 1-1zm1 19 4-1a1015 1015 0 0 0 -1-2c0 1-3 1-3 3m-2 0c0-1-2-1-1 1l1-1c1 3 3-1 0 0m0 2-2 1zm-3-18c1 1 2 0 2-1h-3zm-5 1c1 2 2 2 4 2 0-2-2-2-4-2m0 26h-1v-1zm-2-10c-1 0-2 1-1 2zm-3-1 1-1v-1h-1zm-1 7c1 2 5 1 5-1h-2c1-2 4-3 4-5h-1c0 2-2 3-4 3 1 2 0 3-2 3m1-5-2-2 1 1zm-2 5h-1v1zm-3-9 1-1c1 1 0 1-1 1m1 8h-3l1 3c2-1 1-2 2-3m-3 9-1-2zm-2-2 1-1zm-2-2v-1zm-3-4h-1zm92-50c0 1 0 1 0 0h1c2 1-2 2-3 3-2 1-3-1-5-1 0 2 0 0 1 1s-1 1-1 2c-2 0-1 2-1 3-3-3-5 3-8 1 2 2 0 2 0 4h-1 2l-5 4c0-2-1 0 0 0-1 2-3 1-4 4-2-1 1-2 1-3-2-1-3 4-6 4-1 1 2 1 1 2l-5 1 1 2-2 1-1-1c-1 1-3 1-3 3-2-1-2 1-4 2 0-2 2-2 3-4l2-2c-1-1-2 1-2 2-2 0-3 1-4 3l1 2h-2v1l-2 2c-1 0-1-2-2-1-1 0-3 2-3 4l-7 2c0 1-1 3-4 4l1 2c-2-2-2 2-5 2 0-2 3-1 2-3 2 0 0-1 0 0l-3 2-1-1 1 1 1 1c0 1 0 3-2 2 1-2-1-2-1-5l-3 1v4c-2-2-3 2-4 3-2 0-1-2 0-2l-2 1-1-2-4 4c-1-2 1-2 1-4-1 0-1 2-3 2l-2 1c-2 0 0-1 1-2h-2c2-3 3-7 7-8 1 0 1-1 0 0 0-2 2-3 1-4 4-2 6-7 9-9-1-2-4 3-5 1v2l-1-1v4c-3 0-5 1-7 3 0-1 2-1 1-3-2 2-2 6-5 9-2 0 0-2 0-3-3 2-1 3-2 5h-1c0-2-1 1-2-1 1-3 4-3 3-6 41-46 94-80 149-113 6-2 13-7 19-11-3 0-5-2-7 0-2-3-8 1-11-2-4 2-9 0-14 1l-2-1-11 1c-7-3-14 0-22-2h-2c-5-2-15 1-20-4l-1 1c-10-6-17-18-24-28l-1-7c11-17 31-29 48-40 14-8 27-13 39-18l15-5 7-1h3c5-1 9 2 13 3 9 5 9 15 16 22 0 2 3 5 1 7-2 1-3-2-5-1-15-7-33 3-47 8-21 8-41 20-57 34l17 1 50 1c10-1 22 2 31 1 1 1 4 2 6 1 8 1 13 7 18 14l1 2c3 5 6 7 8 14-13 16-34 23-51 35-11 5-22 13-31 18-2 2-5 1-5 4-2 0-2 2-3 1-8 7-19 11-25 18h-5zm-95 51c-1 0-1 3-3 2l5-5-1 5zm282-222 1-1v2h-1zm-1 5 1 2c1 0 1-2-1-2zm0 7-1 2zm-7 8v-1zm-1 5 1-2zm0 18 1 3zm0-16s1-1 0 0l-1 1v-1zm-1 6-1-1 2 1zm-1 3v-1h1v1zm1 2c-1 1-1 0-1-1zm-1 16v1h1v-1zm-2-8c-1-2 1-5 1-7 3 2 0 5-1 7zm1 15s-1 0 0 0zm-2-8c-1-1 0-5 1-6zm-2 27-1 1h2zm-2-12c1-4 1-9 3-12 1 1-2 6-1 10-1 0 0 2-2 2zm0 18v2l1-2zm0 4v3zm-1 3c0 1-2 3 0 4zm-3-25h-1zm-4-90c-1 0-2 1-2-1zm4 100h-1zm0 28 1-1zm-7-136c-1-3 1-7 1-10 1 3 0 7-1 10zm0 1h-1zm5 124c0-2 1-2 2-3 0 2-1 2-2 3zm1 15v3c2 0 1-1 0-3zm-7-135-1-1c0-2 2 0 1 1 1 2-1 2-1 0zm7 126c-3 2-2-4-1-5 2 0-1 4 1 5zm-1 16v2c0-1 2-2 0-2zm-6-131c0-2 0-5 2-5 1 1-2 3 0 4l-2 1 1 2-2 1-1-2zm-2 5c-1-1 1-1 1-2 2 0 1 2-1 2zm0 6-1-2h1zm5 112 1-7c2 0 2 1 2 2l-2 2 1 1c1 2-1 2-2 2zm-6-108-1-1h1zm-2-3 1-3zm1 15c-2 0-1-3-1-4zm-3-6v-1l1-1v1zm5 112v-1l1-1v1zm3 6c-2-4 1-5 0-9 2 5 0 13-2 17 0-3 0-6 2-8zm-9-100c-1-3 1-6 2-9 2 2-1 6-2 9zm-1 1v-1h1v1zm0 2v-1h1v1zm5 95c0-2 2-1 3 1zm-1 10v-1zm1 1-1 1zm-6-97c-2-2-1-5 1-5 1 2-2 2-1 5zm-1 4 1-1v1zm0-1-1-2 2 1zm5 93h-1zm-6-89v-2zm5 95v-1l1 1zm0 8v-2c1 0 2 3 0 2zm-5-101h-1zm5 107c3-6 3-13 5-19h1c-1 3 0 7-2 9v6c-3 0 0 4-3 4 2 1 1 3 1 5-3 0-2-5-3-8zm-8-110v-1h1v1zm-1 3c0-1 2-1 1-2 2 0 1 2-1 2zm1 1-1 1zm5 103v-2zm-1 4v-2h1v2zm0 4 2-1c0 1 0 2-2 2zm0-1-1-2 2 1zm-1 4c0-2 1 0 3-1 1 2-3 6-4 3 2 1 1 0 3-2zm-2-111 1-2-1 2c1 11-5 17-4 28h-2c2-9 3-19 6-28zm-2 123c0-1 2 0 1-2 1 0 1 3-1 2zm-2 32-1 2c2-1 2-1 1-2zm-7-113v1l1-1zm2-8c-2 1-5 7-2 8v-1l1 1c2-1 1-5 1-8zm0 126 1 3c0-1 2-3-1-3zm-3-116c-1 4-4 7-2 11 3-1 4-9 2-11zm3 105c-1-2 2-1 0 0 1 1-1 0 0 0zm-1 3c1 0-1-2 1-2zm-6-77v-2zm-2 9c0-1-1-8 2-8zm-1 4v-3zm-1 2v-1h1v1zm3 84c0 1-2 0-1 2zm-7-63 1-1zm0-6-2 4c2 0 2-2 2-4zm1 44c-1 1-1-1-1-2zm-2-18-1-1h1l1 1zm1 21-1-2c2 0 2 2 1 2zm-1 13v-1h1v1zm1 1h-1zm-4-53v1h1v-1zm2 39v-1-1l1 1zm-1-10h-1zm1 19h-1zm-2-15-1 1zm0 24 1 1zm63-177c-1-2 1-3 2-2-2-3 0-5 0-9l1 3-1-7h2c-1-2 0-3 2-3-1-2-4-4-1-5l1 2c1-2-1-3-1-5 1-3 1-6 4-7-1-3-2-6 0-8l1 1c0-3 2-7 0-11h2c0-3 2-5 0-7h1c1-2-1-1-1-3h2c1-9 3-18 6-25l-2-7-5-2-8-6h-5l-3-1h-2c-5 0-11 1-14 5v13c-3 7-4 14-5 21 2 0 1-2 2-2 1 3 0 5-1 8l-2-1v7c-3 2-2 8-3 12l-1 2-4 20c-2 4-4 9-4 15l-1 2c0 3-1 5 1 9-3-1-2 2-1 5-3 0-2 2-1 3l-3 1c1 5-1 9-2 13h2c0 2 0 4-3 5l1 5c2 0 1-3 2-5 1 3 2 0 3 1l-3 4 2 1c-6 9-4 23-9 32 0 1 0 5-2 5 0-6 3-10 3-16-1 2-2 0-3 2h2c-3 4-1 11-5 14 1 5 0 9-3 12v4l1 1c-3 4-1 11-3 15 4-2 1-11 5-14 0 7-5 11-2 19-1 2-1 6-4 6 2 10-5 19-3 29-2 0-1 3-1 6-1 4-4 9 0 14l1-5 2-6c0 1 2 1 1 2h-2c1 2 1 3-1 4v8c3 1 1 6 3 7l1-2 1 3c2-1 1-4 2-7l2 2 1-2c1 2-2 5 1 6 1-3 0-10 3-8 2-1 0-5 2-5l1-3-1 3v5c3-4 4-11 4-15 2 2 1-2 3-2l-3-2 4-2c0-1-2-4 1-4l-2 12c2-3 4-7 4-12-3-1-3-5-3-8 3 1 0 7 3 7 1-3-4-7 0-10l-2-1h2c-1-1-2-4 0-4l1 1c-2 1 0 1 0 2 1 3-2 5 0 9l2-9-2-3 2-5h-2l3-4c1 5-1 7-1 11 3-5 2-14 5-19 2 4-1 4 0 8-2 0-1 2-2 2 1 8-3 12-3 19-2 5-3 9-3 15-1 3-3 7-2 11a1403 1403 0 0 0 21-100c-1 0 0 2-2 2 0-2 1-3 2-2 0-2-2-1-1-2 2-1 1 2 3 1 1-2-2-2-1-2 2 1 1-2 2-2v2h1c1-1 0-3-2-4l3-12 1-1 2-12h-3c1 3 1 6-1 7 1 2 1 4-1 3l2-10c1-4 1-9 3-13 1 5-3 9 0 12 1 1 0-3 2-2 1-2-2-5 1-5 0 0 0 3 1 2-3-6-1-7 1-8l-1-1v-2h2c-2-1-3-6 2-6-3-1-2-4-1-6 1 0 1 2 2 1l-1-3s0-1 0 0c3-1-2-6 1-7zm131-4s0 1 0 0zm-1 1h-2zm-19-113h1zm4 115v-1h-1v1zm-1-1-2 2c0-1 3 0 2-2zm-3 5-1-1-1-1c2 0 2 1 2 2zm2 71s1 0 0 0zm-12-188c-2 1-3 1-2 2 1 0 2 0 2-2zm4 114c-2 0-3 2-1 2-1-1 2 0 1-2zm-2 1c-2 1-4 0-3 3 1-1 3-1 3-3zm-10-112 3-2v1zm-1 1 1-1c1 1-1 2-1 1zm-3 3c-1 0-1-2 1-1zm-2 0v2h-1v-1zm-15 20c-1 1 0 1 0 0zm-7 10-2 1 3-4c1 1-1 1-1 3zm-2 3c-1 1-1 0-1-1l1-1zm-3 5 2-3c-2 1-2 2-2 3-1 0 0 1 0 0zm1 2-1 2-2 3h-1l1 1c-1 0-3 2-1 2l1-2v-1l2-3 1-2c2 0 2-2 3-4-2 1-3 2-3 4zm-2 0c-2 1-4 4-3 5zm1 78v-1s0 1 0 0zm-2 1 1 1-1 1-1-1zm-11-65v1h-1v-1zm86 50c-4 2-6 3-10 3 1-2 5 0 5-3l-9 2c-2 0-1 0-1-2-1 0-2 1-1 2 0 2 1-1 1 1s-2 1-3 0c1 1 0 2-1 2-6-5-13 5-19 3-1-1 0-1 1-2l1 2 2-1c0-2-2-2-4-2-4 3-11 6-15 6l-1-2c0 2-2 3-2 3v-2c-7 1-10 4-18 6l-1-2c-2 0 0 2-2 2v-2c-1 1-1-1-2-1l-1 3-1-1c1 2 0 2-1 2-6 22-14 44-14 69 31-9 44-31 66-48 9-11 19-20 27-32l-5 2c3-2 7-4 8-8zm-114 10-1 1zm102 61c-1 1-4 1-3 3-4 1-4 6-8 6v2c-5 1-7 5-11 8v-1c-1 0-2 1 0 1l-1 1-5 4c-6 2-10 7-14 10-9 4-25 13-38 8l-1 1-1-2c-9-3-16-9-24-15h2c0-2-2-2-3-3-1 0 1 2-1 1l-5-9c-7-32 3-51 10-74v1c1 0 3-2 1-3l2-3c5-17 13-32 20-48 1 0 1 2 2 1 1 0-2-4 1-5v3l1-3h-1l1-2v1l4-3-1-3c3 0 3-3 2-4 2 2 1-2 4-2v1l-4 6c3 0 3-4 4-6l1-1h-1c2-5 5-10 9-13 1 0 2-1 2-3 2-1 3-2 3-4l-2 1c3-4 5-9 9-10 2-1-1-1 0-3 2 0 0 1 1 2l4-4-1-2c2 0 2 2 2 3-6 6-12 14-17 22 5-4 9-12 14-17l9-11 10-8c-3 0-8 5-10 8-2 0-4 6-6 2 2 1 1-3 4-4v-2h2c3-3 8-4 9-8 2 1 2-2 3-3 4 1 11-5 18-3 5-2 7 2 13 2 1 4 4 4 5 7l8 7c1 7-6 18-14 16-2 0-2-3-4-2-1-2-2-2-2-5l-8 3c-21 16-32 36-44 56v2l-10 19v2c-3 5-3 10-6 14 14-6 23-15 38-19 10-6 18-7 29-13 4 0 5-3 10-3l1-2c8-1 21-7 33-11 0 3 2 1 2 3 5 0 6 4 11 4l15 16c-2 3-3 6-6 7v2c-22 25-38 54-62 76l-1 2-2-1-1 3-1 1c0-2-2 0 0 0zm250-254v-1h1v1zm1 22 1-2c-1 1-2 1-1 2zm0 0-1 2zm-6 7c-2 1 0 3 0 1zm0 5c0 2-3 2-2 3l3 1c-1-1 1-4-1-4zm-2-1c-1-2 1-1 0 0 0 1-2 0 0 0zm0 5-1 3zm-2-3s0-2 1-1zm1 11-1 2h2zm-2 10v3l1-2zm-2-14h1zm0 0-1 1c1-1 0-3 2-4l1 7zm0 13v-2zm-2 5v-2zm-1-4c-1-1 0-2 1-2 1 1 0 2-1 2zm-1 10c-1 0-2-1-1-2s1 1 1 2zm-2-3 1-2c1 0 0 3-1 2zm0 11c-1-1 1-1 1-2h1l-1 1v2zm-3-6 1-1h1v1h-1v1zm1 13-1-2h1l1 1-1 1c0 1-2 0 0 0zm-2 1c-2-1-1-3 0-4 2 1-1 2 0 4zm-26 103v-2zm-4 14 2-3c0 2 0 3-2 3zm-2 12c-2-1 0-3 0-4zm-6 24v-1h1v1zm1 3-1-2zm-2 2 1-2zm0 2h-1zm-2 2c-1-2 2 0 0 0 0 2-2 1 0 0zm-2-3v-1h1l1 1-2 1zm-1 12c-1-2-3-1-2 0zm-26-29v-1zm-2-4-1-4c2 0 3 3 1 4zm-2-7v-1h1zm1-4c-1 2-3-2-1-2zm-2-5c-2 0 0-2-1-3zm-2-9-1-1c1-1 2 2 1 1zm-1-6h-1zm1 3-2-1c1-1 2 0 2 1zm-4-12v-5c1 0 2 5 0 5zm0-11h-1zm-1-1-1-1h1zm-1-11c-2 1-2-1-2-2 1-1 1 1 2 2zm-35 15v1h1l1-1zm-4-5v-1h1v1zm-1 19-2-2c2 0 1 1 2 2zm-3-15v1zm0 24v-1l1 1zm0 2c-1-1 0-1 0 0zm-2 6c0-1 0-3 1-2zm-1 4v-1h1v1zm1 8-1 2zm-2-5v-1zm0 4c-2 0-1-2-1-2zm-2 5c0-1-1-2 1-2zm-1-8-1 1zm0 4-1 1zm-1-7-1-1c-1-1 2-1 1 1zm0 24h-1zm-2 3 1-1zm0 2v-1h1v1zm-1 8c-1-2 1-4 1-6 1 2 0 5-1 6zm0 3-1-2zm-2-5v-2l1 1zm2 14c-2 1-1 3-1 5 2-1 0-3 1-5zm-2-10c-2-1-1-1-1-2zm-2 9v1zm-1 5v-1l1-1zm-3-51v-1l1 1zm-1 60v-1zm-2-43-1-1zm1 44c-2 0-2-1-2-2zm-6-14v1zm0 3-1 1zm-3-13 1-1v1zm0 7h-1zm-2 7c0-1 0-3 1-2zm0 7 1-1v1zm1-2c-3 0 0-2-1-4 2 0 0 3 1 4zm-5-2-1 1zm-1-12-1-1h1l1 1zm0 18c-1-1-1-3 1-3zm1 3c-2 0-1-2-1-3zm-3-11c0-1-1-4 1-4zm-2 2 2-1zm-1 11h1v-1zm198-288c0-4 2-5 3-8-2 0-3 4-6 4-3 7-10 14-12 23l-3 1v3c-4 4-5 9-9 13l-23 50v2c-21 46-31 99-47 149 0-2-2-1-1-3a694013 694013 0 0 0 -9-37v-3c-5-22-9-48-16-71-2-4-4-9-1-11l-2-7-1-1v-2c-1-1-5 1-4-2-1-1-5 1-5-2-3 0-2 2-4 2-3-3-5 0-8-2-1 2-2 2-4 2v2l-4-1c-7 10-9 23-14 34-3 15-8 29-10 45-3 7-5 16-6 24-6 19-10 39-13 62l1 1c-3 3-1 8-2 13l2 1c-2 1 0 2 0 5 1-1 0-3 2-2-2-1-1-3 1-4l1 11 1-4c3 1 2-4 4-4 0 2-2 3 0 5 1-1 0-4 2-5 0 1-2 3 0 4 3-2 1-5 3-8v10c2 0 0-3 2-3 2 1-1 3 1 3-1-2 1-1 2-1 0-1 0-3 2-3v2c1 0-1-2 1-2l1 5c2-2 1-7 2-10 1 1-1 4 1 5 1-2 2-3 0-6 4-3 1-11 5-15l-1 5c3-6 3-15 5-22h1v-7h2l-1-3 1-1c-1-5 1-9 2-12l1 1c-1-5 2-10 3-16 1 1-1 2 1 2 1-1 0-5-1-3 0-3 3-3 4-6-1-1-2-1-2-3 3-1 0-7 5-10h-2c2-2-1-7 3-7 0-2-1 1-2-1l3-1c2 17 5 34 10 52l5 16v4c2 4 5 8 6 13 2-1 2 1 3 2 1 5 6 5 9 8 7-1 13-4 19-3l11-4h7c-3-1-4 1-5-1 3 1 2-2 4-3 2 1 4 0 3-1h-1l5-5c-1-3 1-6 3-6v-2h1c0-4 1-10 3-13-2-6 4-9 2-16 1 0 2-2 0-2 2-1 1-1 1-3 3-2 1-6 4-9l-3-4c3 1 5-2 3-5 4-3 0-8 5-12l-1-3-1-1h2l1-6c-1 0-2-1-1-2 0 1 3 1 2-1s-1 2-2 0c2-2 1-8 5-8 2-3-2-9 3-8l-1-8c1-2 2-1 3-1-2-1-2-2-2-3 1-1 1-2 2-1 1-1-2-2 0-3v-2l2 1-1-8h2c0-7 3-14 5-21h-2c4-3 2-9 6-9l-1-2 5-11h-1c1-1 1-3 3-2l-1-4h-4c0-2 1-2 3-1l2-5c1 1 3 2 3 0l-2-1c0-2 1-4 3-3-1-1-2-1-2-3h2v-1c-1-2 1-2 1-3-2 0-2-3-1-4 0 1 0 3 1 2l-1-4 5-5-5-1 4-9-1-2 2-1 1-4c2 1 4-4 4-6-1 0 0 2-2 1 1-2 6-4 4-6 1-4 2-8 5-11l-4-1c-1 1 1 3-1 3l1 2c-2 1-2 4-4 4v-1c-2-2 0-4 2-4-3-2 0-6 2-5 1-7 7-13 8-19l-3 5-3 4z"
      />
    </g>
  </symbol>

  <symbol id="medium-icon" viewBox="0 0 20 20">
    <path
      fill-rule="evenodd"
      d="M19.12 5.14h-.71c-.27 0-.65.38-.65.63v9c0 .25.38.59.65.59h.71v2.14h-6.5v-2.14H14V5.9h-.07l-3.17 11.6H8.29L5.16 5.9h-.08v9.46h1.36v2.14H1v-2.14h.7c.28 0 .66-.34.66-.59v-9c0-.25-.38-.63-.66-.63H1V3h6.8l2.23 8.4h.06L12.34 3h6.78v2.14"
    >
    </path>
  </symbol>

  <symbol id="spotify-icon" viewBox="0 0 20 20">
    <path
      d="M10 1a9 9 0 000 18 9 9 0 000-18zm3.6 13.2h-.3a10.3 10.3 0 00-7.5-1l-.5.1a.6.6 0 01-.6-.5c0-.4.3-.6.5-.7 3-.6 6-.5 8.6 1 .3.1.4.3.4.6s-.3.5-.6.5zm1-2.3l-.4-.2a11.9 11.9 0 00-8.7-1h-.4c-.4 0-.7-.3-.7-.7 0-.3.2-.6.5-.7 1-.3 2-.5 3.6-.5 2.3 0 4.6.6 6.4 1.7.3.1.4.4.4.7 0 .4-.3.7-.7.7zM15.7 9l-.4-.1C12.7 7.4 8 7 5 7.9l-.5.1a.9.9 0 01-.8-.9c0-.5.3-.7.6-.8 1.3-.4 2.7-.6 4.3-.6 2.6 0 5.4.6 7.4 1.8.3.1.5.3.5.8s-.4.8-.9.8z"
    />
  </symbol>


  <symbol id="mail-icon" viewBox="0 0 20 18">
  <path
      d="M19.6211 5.57812C19.7734 5.45703 20 5.57031 20 5.76172V13.75C20 14.7852 19.1602 15.625 18.125 15.625H1.875C0.839844 15.625 0 14.7852 0 13.75V5.76562C0 5.57031 0.222656 5.46094 0.378906 5.58203C1.25391 6.26172 2.41406 7.125 6.39844 10.0195C7.22266 10.6211 8.61328 11.8867 10 11.8789C11.3945 11.8906 12.8125 10.5977 13.6055 10.0195C17.5898 7.125 18.7461 6.25781 19.6211 5.57812ZM10 10.625C10.9062 10.6406 12.2109 9.48438 12.8672 9.00781C18.0508 5.24609 18.4453 4.91797 19.6406 3.98047C19.8672 3.80469 20 3.53125 20 3.24219V2.5C20 1.46484 19.1602 0.625 18.125 0.625H1.875C0.839844 0.625 0 1.46484 0 2.5V3.24219C0 3.53125 0.132812 3.80078 0.359375 3.98047C1.55469 4.91406 1.94922 5.24609 7.13281 9.00781C7.78906 9.48438 9.09375 10.6406 10 10.625Z"
    />
  </symbol>


  <symbol id="slack-icon" viewBox="0 0 20 20">
    <path
      d="M4.8 12.4v-1.9h-2a1.9 1.9 0 100 3.8 2 2 0 002-1.9zm.9 0v4.7a1.9 1.9 0 103.8 0v-4.7a1.9 1.9 0 10-3.8 0zm1.9-7.6h1.9V3c0-1-.9-1.9-2-1.9a2 2 0 00-1.8 2 2 2 0 001.9 1.8zm0 1H2.9a1.9 1.9 0 100 3.7h4.7a1.9 1.9 0 100-3.8zm7.6 1.8v2H17c1 0 1.9-1 1.9-2a2 2 0 00-3.8 0zm-1 0V3c0-1-.8-1.9-1.8-1.9a2 2 0 00-2 2v4.6a1.9 1.9 0 103.9 0zm-1.8 7.6h-2v2a1.9 1.9 0 102-2zm0-.9H17c1 0 1.9-.9 1.9-1.9a2 2 0 00-2-1.9h-4.6a1.9 1.9 0 100 3.8z"
      fill="currentColor"
    />
  </symbol>

  <symbol id="youtube-icon" viewBox="0 0 20 20">
    <path
      d="M18.6 6c-.2-.8-.8-1.4-1.6-1.6-1.4-.4-7-.4-7-.4s-5.6 0-7 .4c-.8.2-1.4.8-1.6 1.6C1 7.4 1 10.4 1 10.4s0 2.9.4 4.3c.2.8.8 1.4 1.6 1.6 1.4.3 7 .3 7 .3s5.6 0 7-.3c.8-.2 1.4-.8 1.6-1.6.4-1.4.4-4.3.4-4.3s0-3-.4-4.4zM8.2 13V7.7l4.6 2.7L8.2 13z"
      fill="currentColor"
    />
  </symbol>

  <symbol id="twitter-icon" viewBox="0 0 20 20">
    <path
      fill="currentColor"
      fill-rule="evenodd"
      d="M9.74 6.72l.04.61-.65-.07a10.84 10.84 0 0 1-6.2-2.87l-.85-.8-.22.59a3.41 3.41 0 0 0 .8 3.66c.53.52.4.59-.49.28-.31-.1-.58-.17-.61-.14-.1.1.22 1.22.47 1.66a4.1 4.1 0 0 0 1.78 1.58l.64.29h-.76c-.73 0-.75.02-.67.28.26.8 1.28 1.66 2.43 2.03l.8.26-.7.4a7.67 7.67 0 0 1-3.48.9c-.59.02-1.07.07-1.07.1 0 .13 1.59.82 2.51 1.1 2.77.8 6.06.45 8.53-.92a10.95 10.95 0 0 0 4.33-4.8c.45-1 .89-2.83.89-3.7 0-.57.04-.65.76-1.33.43-.4.84-.82.92-.95.13-.23.11-.23-.55-.02-1.1.37-1.26.32-.72-.24.4-.4.89-1.1.89-1.32 0-.04-.2.03-.42.14-.23.12-.75.3-1.14.42l-.7.2-.64-.4a5.42 5.42 0 0 0-1.1-.54 4.71 4.71 0 0 0-2.28.05c-1.63.55-2.66 1.98-2.54 3.55z"
    />
  </symbol>

  <symbol id="facebook-icon" viewBox="0 0 20 20">
    <path
      fill="currentColor"
      fill-rule="evenodd"
      d="M11.72 19.42v-9.21h2.54l.34-3.17h-2.88v-1.6c0-.82.08-1.27 1.27-1.27h1.59V1h-2.55C8.98 1 7.9 2.54 7.9 5.13v1.9H6v3.18h1.9v9.21h3.82z"
    />
  </symbol>

  <symbol id="dribbble-icon" viewBox="0 0 20 20">
    <path
      fill="currentColor"
      fill-rule="evenodd"
      d="M19.33 9.65a9.67 9.67 0 1 1-19.34 0 9.67 9.67 0 0 1 19.34 0zm-7.89-1.97a25.99 25.99 0 0 1 .73 1.62c2.83-.36 5.63.24 5.75.27a8.2 8.2 0 0 0-1.88-5.15c-.02.02-1.34 1.93-4.6 3.26zm2.84 8.8a8.24 8.24 0 0 0 3.53-5.52 12 12 0 0 0-5.14-.36 35.63 35.63 0 0 1 1.6 5.89zm-3.16-5.5l-.05.02C6.2 12.7 4.6 16.1 4.59 16.15a8.24 8.24 0 0 0 8.3 1.09c-.13-.72-.6-3.24-1.77-6.26zm4-7.51a8.22 8.22 0 0 0-7.4-1.83c.12.17 1.67 2.22 3.08 4.8 3.12-1.16 4.3-2.94 4.32-2.97zM9.89 8.2A30.16 30.16 0 0 1 1.42 9.4v.26c0 2.12.8 4.05 2.1 5.5a13 13 0 0 1 7.04-5.53c-.2-.47-.43-.94-.67-1.4zM6.14 2.2A8.25 8.25 0 0 0 1.6 7.95c.22 0 3.65.05 7.62-1A49.63 49.63 0 0 0 6.14 2.2z"
    />
  </symbol>

  <symbol id="instagram-icon" viewBox="0 0 20 20">
    <path
      fill="currentColor"
      fill-rule="evenodd"
      d="M9.67 0c2.62 0 2.95.01 3.98.06 1.03.05 1.73.2 2.35.45.63.24 1.17.57 1.7 1.11.54.54.87 1.08 1.12 1.71.24.62.4 1.32.45 2.35.05 1.03.06 1.36.06 3.98 0 2.63-.01 2.96-.06 3.99a7.16 7.16 0 0 1-.45 2.34 4.74 4.74 0 0 1-1.11 1.72c-.54.53-1.08.87-1.71 1.11a7.1 7.1 0 0 1-2.35.45c-1.03.05-1.36.06-3.99.06a68.6 68.6 0 0 1-3.98-.06 7.1 7.1 0 0 1-2.35-.45 4.73 4.73 0 0 1-1.7-1.11A4.74 4.74 0 0 1 .5 15.99a7.1 7.1 0 0 1-.45-2.34A68.76 68.76 0 0 1 0 9.66c0-2.62.01-2.95.06-3.98.04-1.03.2-1.73.45-2.35.24-.63.58-1.17 1.11-1.7A4.73 4.73 0 0 1 3.33.5 7.1 7.1 0 0 1 5.68.06 68.6 68.6 0 0 1 9.67 0zM8.8 1.74c-1.8 0-2.15.01-3.04.05-.94.05-1.45.2-1.8.34a3 3 0 0 0-1.1.72 3 3 0 0 0-.73 1.11c-.13.34-.29.85-.33 1.8a67.5 67.5 0 0 0-.06 3.9c0 2.58.01 2.89.06 3.9.04.95.2 1.46.33 1.8a3 3 0 0 0 .72 1.11 3 3 0 0 0 1.12.72c.34.14.85.3 1.79.34 1.02.04 1.32.05 3.9.05 2.59 0 2.9 0 3.91-.05.94-.05 1.46-.2 1.8-.34.45-.17.77-.38 1.1-.72.34-.34.55-.66.73-1.1.13-.35.29-.86.33-1.8.05-1.02.06-1.33.06-3.9 0-2.59-.01-2.9-.06-3.91a5.34 5.34 0 0 0-.33-1.8 3 3 0 0 0-.72-1.1 2.99 2.99 0 0 0-1.11-.73 5.35 5.35 0 0 0-1.8-.33 67.56 67.56 0 0 0-3.9-.06H8.8zm6.02 1.6a1.16 1.16 0 1 1 0 2.33 1.16 1.16 0 0 1 0-2.32zM9.67 4.7a4.96 4.96 0 1 1 0 9.93 4.96 4.96 0 0 1 0-9.93zm0 1.74a3.22 3.22 0 1 0 0 6.45 3.22 3.22 0 0 0 0-6.45z"
    />
  </symbol>

  <symbol id="github-icon" viewBox="0 0 20 20">
    <path
      fill="currentColor"
      fill-rule="evenodd"
      d="M6.7 15.2l-.2.2c-.2 0-.2-.1-.2-.2l.2-.1.2.1zM5.4 15c0 .1 0 .2.2.2H6c0-.1 0-.2-.2-.3l-.3.1zm1.8 0c-.1 0-.2 0-.2.2h.3l.2-.1-.3-.1zM10 0A9.5 9.5 0 0 0 0 9.5c0 4.4 2.8 8 6.8 9.4.6 0 .7-.2.7-.5V16s-2.8.6-3.4-1.2c0 0-.5-1.1-1.1-1.4 0 0-1-.6 0-.6 0 0 1 0 1.6 1 .9 1.5 2.4 1 3 .8 0-.6.3-1 .6-1.3-2.3-.2-4.5-.5-4.5-4.3a3 3 0 0 1 1-2.3c-.2-.3-.5-1.3 0-2.7.9-.2 2.8 1.1 2.8 1.1a9.8 9.8 0 0 1 5 0s2-1.3 2.8-1c.6 1.3.3 2.3.2 2.6.6.7 1 1.2 1 2.3 0 3.8-2.4 4-4.6 4.3.3.3.6 1 .6 1.8v3.3c0 .2.2.6.7.5 4-1.3 6.8-5 6.8-9.4C20 4.1 15.5 0 9.9 0zm-6 13.5v.2h.3v-.2h-.3zm-.4-.3v.1h.3l-.1-.2h-.2zm1.3 1.3v.3h.3v-.2h-.3zm-.5-.5v.2h.3v-.1c-.1-.1-.2-.2-.3-.1z"
    />
  </symbol>

  <symbol id="linkedin-icon" viewBox="0 0 20 20">
    <path
      fill="currentColor"
      fill-rule="evenodd"
      d="M18.6 0H1.4C.6 0 0 .6 0 1.4v16.9c0 .8.6 1.4 1.4 1.4h17.2c.8 0 1.4-.6 1.4-1.4V1.4c0-.8-.6-1.4-1.4-1.4zM6 16.9H3V7.5h3v9.4zM4.6 6.2c-1 0-1.8-.8-1.8-1.7 0-1 .8-1.7 1.8-1.7s1.7.8 1.7 1.7c0 1-.8 1.7-1.7 1.7zm12.6 10.7h-3v-4.6c0-1 0-2.5-1.5-2.5-1.6 0-1.8 1.2-1.8 2.4V17h-3V7.5h2.8v1.3c.5-.8 1.5-1.6 2.9-1.6 3 0 3.6 2 3.6 4.5V17z"
    />
  </symbol>

  <symbol id="mastodon-icon" viewBox="0 0 20 20">
    <path
      fill="currentColor"
      fill-rule="nonzero"
      d="M18.9 12c-.3 1.4-2.5 3-5 3.2-1.3.2-2.6.3-4 .3-2.2-.1-4-.6-4-.6v.7c.3 2.2 2.3 2.3 4 2.4 1.9 0 3.5-.5 3.5-.5v1.7s-1.2.7-3.5.8c-1.2 0-2.8 0-4.6-.5C1.4 18.5.7 14.3.6 10V6.6C.6 2.2 3.4 1 3.4 1 5 .3 7.4 0 10 0c2.6 0 5 .3 6.5 1 0 0 2.9 1.2 2.9 5.6 0 0 0 3.2-.4 5.4zm-3-5.1c0-1-.3-2-.8-2.6-.6-.6-1.3-1-2.2-1-1.1 0-2 .5-2.5 1.3l-.5.9-.5-.9A2.7 2.7 0 0 0 7 3.4c-1 0-1.7.3-2.2 1C4.2 5 4 5.7 4 6.8v5.3h2V7c0-1.1.5-1.7 1.4-1.7 1 0 1.5.7 1.5 2v2.8h2V7.4c0-1.3.6-2 1.6-2 .9 0 1.3.6 1.3 1.7v5H16V7z"
    />
  </symbol>

  <symbol id="react-icon" viewBox="0 0 60 54">
  <path
      fill="currentColor"
      fill-rule="nonzero"
      d="M60 26.7c0 4-5 7.8-12.5 10 1.7 7.8 1 14-2.5 16-.8.5-1.7.7-2.7.7-3.4 0-7.8-2.4-12.3-6.5-4.4 4.1-8.8 6.5-12.2 6.5-1 0-2-.2-2.7-.7-3.5-2-4.3-8.1-2.5-15.9C5 34.5 0 30.7 0 26.8c0-4 5-7.8 12.6-10.1-1.8-7.8-1-14 2.4-16 .8-.4 1.7-.6 2.8-.6v2.7c-.6 0-1 0-1.4.3-1.7 1-2.4 4.6-1.8 9.3l.6 3.5c2.4-.6 5-1 7.8-1.3 1.6-2.3 3.3-4.3 5-6.1-4-3.7-7.7-5.7-10.2-5.7V0C21 0 25.5 2.4 30 6.6 34.4 2.4 38.8 0 42.2 0v2.7c-2.6 0-6.3 2-10.3 5.8 1.7 1.8 3.5 3.8 5.1 6 2.8.4 5.4.8 7.8 1.4l.6-3.6c.6-4.7-.2-8.3-1.8-9.2-.4-.3-.9-.4-1.4-.4V0c1 0 2 .2 2.7.7 3.5 2 4.3 8.2 2.5 16C55 19 60 22.6 60 26.6zm-16-8.1l-5-1a66.2 66.2 0 0 1 3.4 5.8 55 55 0 0 0 1.7-4.8zm-5.5 13l2.5-4.9a63.7 63.7 0 0 0-5.5-9.5 68.3 68.3 0 0 0-11 0 65.2 65.2 0 0 0-5.5 9.6 63.7 63.7 0 0 0 5.5 9.5 68.3 68.3 0 0 0 11 0l3-4.7zm4-1.6a69.5 69.5 0 0 1-3.4 5.8c1.7-.2 3.4-.5 5-1-.5-1.5-1-3.2-1.7-4.8zM30 43c1.1-1.1 2.3-2.4 3.4-3.9a62.1 62.1 0 0 1-6.8 0c1.1 1.5 2.3 2.8 3.4 4zm-9-7.2a81 81 0 0 1-3.4-5.8 55 55 0 0 0-1.7 4.9l5 1zm9-25.4a47.7 47.7 0 0 0-3.4 4 62.1 62.1 0 0 1 6.8 0 50.4 50.4 0 0 0-3.4-4zm-9 7.2l-5.1 1c.4 1.6 1 3.2 1.7 4.8a69 69 0 0 1 3.3-5.8zM9.7 32.9l3.5 1.3a58 58 0 0 1 2.7-7.5c-1.2-2.5-2-5-2.8-7.4l-3.4 1.2c-4.3 1.9-7 4.3-7 6.2 0 2 2.7 4.4 7 6.2zm6.6 17.5c.4.2.9.3 1.4.3 2.6 0 6.3-2 10.3-5.7a59.7 59.7 0 0 1-5.1-6.1c-2.8-.3-5.4-.8-7.8-1.4l-.6 3.6c-.6 4.7.2 8.3 1.8 9.3zm29-9.3l-.6-3.6c-2.4.6-5 1-7.8 1.4a57.8 57.8 0 0 1-5 6c4 3.7 7.7 5.8 10.2 5.8.6 0 1-.1 1.4-.4 1.7-1 2.4-4.6 1.8-9.2zm4.7-8.2c4.4-1.8 7.2-4.3 7.2-6.2 0-1.9-2.8-4.3-7.1-6.2l-3.5-1.2a58 58 0 0 1-2.7 7.4c1.1 2.6 2 5 2.8 7.4 1.1-.3 2.3-.7 3.3-1.2zM30 32.3a5.6 5.6 0 1 1 0-11.2 5.6 5.6 0 0 1 0 11.2z"
    />
  </symbol>

  <symbol id="rails-icon" viewBox="0 0 160 57">
    <path
      fill="currentColor"
      d="M139.2 49.5h13.4v-3.7h-6.2a7.6 7.6 0 0 1-7.6-7.5v-2.6c0-5 4.4-7.7 7.6-7.7h12.5v7.4h-13v3.4h6.5c3.7 0 7.6 2.9 7.6 7.6v2.9a7.6 7.6 0 0 1-7.6 7.5h-13.2v-7.3zm-70.8-1.8l9 9.1H66l-6.7-7v7h-7.8v-29H67s8.6.9 8.6 10c0 9.3-7 9.9-7 9.9zm-3-6s1.8-.7 1.8-3.3c0-2.7-1.7-3.3-1.7-3.3h-6.2v6.6h6.2zM94.8 28c2 0 7.5 1.4 7.5 7.6v21.2h-7.7v-5h-7.3v5h-8V35.6c0-2.5 2-7.6 7.6-7.6h7.9zm-.2 15.5v-7s0-1.6-2.2-1.6h-2.7c-2.5 0-2.5 1.6-2.5 1.6v7h7.4zM105.8 28h8.2v28.8h-8.2V28zm19.7 21.4h11v7.4h-19.2V28h8.2v21.4zM2.8 56.8s1.2-12 9.7-26.3c8.5-14.2 23-25 34.7-26C70.6 2 91.6 23.1 91.6 23.1l-1.4 1.1c-23-17-37-9-41.4-6.9-20.2 11.4-14 39.4-14 39.4h-32zm66.5-50l-3.9-1.5.2-2.7C68 3.3 69 3.8 69.5 4l-.2 2.7zm-3.8 8.5l4 .6-.2 2.5c-1.3-.3-2.6-.4-4-.5l.2-2.6zm-15-12.7c-1.1 0-2.3 0-3.5.2L46.3.4A32 32 0 0 1 50 .2l.8 2.4h-.4zm2 15l3.5-1.3 1 2.7-3.6 1.4-1-2.8zM34 7l-3 1.8L29 6 32.4 4 34.1 7zm8.3 18.3l2.5-2.7 1.8 2.8-2.3 2.9-2-3zm-5.8 13.2l1.2-4.5 2.9 2.3-.9 4.8-3.2-2.6zM18.9 19c-1 1-2 2.1-2.8 3.2l-3-2.7c.8-1 1.8-2 2.9-3l2.9 2.5zM6.7 37.2l-2 4.9L0 40.4l2-4.9 4.7 1.7zM36 48.7l4.3 1.6 1 5.3-4.9-1.8c-.2-1.2-.4-3-.4-5.1z"
      fill-rule="evenodd"
    />
  </symbol>

  <symbol id="phoenix-icon" viewBox="0 0 60 41">
    <path
      fill="currentColor"
      fill-rule="nonzero"
      d="M22.5 28.6h-.4a8 8 0 0 1-6.5-6c-.6-1.9.5-3.4 2.6-3.5 1.7 0 2.9 1 3.9 2l3.8 4.6c2 2.2 4.1 3.5 7.2 3.1 2.7-.4 5-1.5 7.1-3.3l1-.7-.2-.3c-1.7.6-3.5.8-5.3.7-2.7-.2-5.3-.7-7.7-2.2a10.1 10.1 0 0 1-4.4-5.7c-.6-2 .6-3.3 2.7-3 .8 0 1.5.4 2 1l1.6 1.2c2.4 2 5.7 2 8.7 0-5 0-8.3-2.8-11.3-6.3l-3.5-4A16 16 0 0 0 15.4.4 20 20 0 0 0 0 3.5h.9c2 0 3.6 1 4.8 2.6.8 1.3 1.2 2.7 1.5 4.1.4 2.2.2 4.4.4 6.5.7 5.6 3.5 9.4 8.8 11.4 2 .8 4 1 6.1.5zM9.2 3.3c-.8.2-1.5-.1-2.2-.8 1.2-.3 2.2-.4 3.3-.5 0 .7-.5 1.1-1.1 1.3zm27.3 32.4c0-.5-.5-.8-.9-1a8.8 8.8 0 0 0-5.4-1.8c-1.1 0-2.3 0-3.4-.5-.5-.2-1-.4-1-1 0-.7.5-1 1-1l1.4-.4c-1.2-.8-2.5-1-4-.3-2.6 1-5.2 1-7.7 0-1.4-.5-2.7-1.3-4-2 0-.1-.1-.1-.2 0a16 16 0 0 0 4.4 4.5c3.2 2.4 6.7 3.8 10.9 3.2a57 57 0 0 1 4-.5c1.7-.1 3.3.4 5 .8zm-7.8-26s-.2-.2-.3 0c1.5 2 3.4 3.5 5.7 4.4 3.7 1.6 7.5 1.8 11.3.5 3-1 5.2 0 6.3 2.9.2-3.4-1.8-5.9-5-6.4-1.8-.2-3.4.4-5 .8-4.7 1.4-9 .7-13-2.1zM52 23l1.8.2c-1.4-1.2-3-1.3-4.7-1.2-2.6.2-4.5 1.6-6.1 3.4-1.5 1.6-2.9 3.3-5 4h.9c3.2-.1 6.2-.8 8.6-3.1l2.2-2.3c.6-.7 1.4-1 2.3-1zm-7.5-4c-2.4.3-4.5 1.3-6.5 2.6a6.6 6.6 0 0 1-4.9 1.1l-1-.1v.1l.4.2.9.3c3.5.9 6.8.4 9.8-1.5a8.2 8.2 0 0 1 6-1.1h.7c.2 0 .4.3.6 0a8.6 8.6 0 0 0-6-1.5zm-8.6-8.1c1.3 0 2.5-.1 3.8-.9H39c-1.8.4-3.4 0-4.9-1.1l-1.6-1.3a11.2 11.2 0 0 0-7.3-2.1l.1.3c3 3 6.3 5 10.6 5.1zM56.9 26c-1.8-1.8-4.2-2-6.5-.5 1.5 0 2.6.5 3.6 1.5l1 1a4.4 4.4 0 0 0 5 0c-1.6-.6-1.6-.6-3-2zM39 39.7c-1.6-3-4.2-3.6-7.3-3.5.9.3 1.8.7 2.5 1.2.8.5 1.4 1.2 2 1.8 1.1 1.2 3 2 4.2 1.8-.6-.4-1-.8-1.4-1.3zm14.8-16.5V23zm-17 12.6h-.1zm-.1 0v-.1z"
    />
  </symbol>

  <symbol id="angular-icon" viewBox="0 0 60 64">
    <g fill="none" fill-rule="nonzero">
      <path
        fill="currentColor"
        d="M29.6 2.3L9 48.3l7.7-.2 4.1-10.3h18.5L44 48.3h7.3l-21.6-46zm0-2.3L60 10.4l-5 39-25.4 14.2-25-14-4.5-39L29.6 0zm-.9 31.6h-5.1l6-14.4v-.1l7 14.5h-7.9z"
      />
      <path
        fill="currentColor"
        d="M29.6 37.8h9.7L44 48.3h7.3l-21.6-46V0L60 10.4l-5 39-25.4 14.2V37.8zm0-6.2V17.1l7 14.5h-7z"
        opacity=".2"
      />
    </g>
  </symbol>

  <symbol id="voice-icon" viewBox="0 0 36 52">
    <path
      fill="currentColor"
      fill-rule="nonzero"
      d="M17.9 35.8A9.7 9.7 0 0 1 8 26V9.7a9.7 9.7 0 1 1 19.5 0V26c0 5.4-4.3 9.8-9.7 9.8zM34 19.4c1 0 1.6.7 1.6 1.6V26c0 9-6.7 16.5-15.4 17.7v3.4H26c.9 0 1.6.8 1.6 1.6v1.7c0 .9-.7 1.6-1.6 1.6H9.7c-.8 0-1.6-.7-1.6-1.6v-1.6c0-1 .8-1.7 1.7-1.7h5.6v-3.4C6.5 42.4 0 34.3 0 25.2v-4c0-1 .7-1.7 1.6-1.7h1.6c1 0 1.7.7 1.7 1.6v4.3c0 6.8 5 12.9 11.7 13.5A13 13 0 0 0 30.9 26v-4.9c0-.9.7-1.6 1.6-1.6h1.6z"
    />
  </symbol>

  <symbol id="machine-learning-icon" viewBox="0 0 59 60">
    <path
      fill="currentColor"
      fill-rule="nonzero"
      d="M57 30a8.9 8.9 0 0 0-2.6-13.3 8.9 8.9 0 0 0-9.7-11.3 8.9 8.9 0 0 0-15.2-2 8.9 8.9 0 0 0-15.2 2 8.9 8.9 0 0 0-9.7 11.3A8.8 8.8 0 0 0 2 30a8.9 8.9 0 0 0 2.6 13.3 8.9 8.9 0 0 0 9.7 11.3 8.9 8.9 0 0 0 15.2 2 8.9 8.9 0 0 0 15.2-2 8.9 8.9 0 0 0 9.7-11.3A8.8 8.8 0 0 0 57.1 30zM27.8 51.1a5.2 5.2 0 0 1-10.3 1V52a5.3 5.3 0 0 1 .4-3.3c1.4.9 3 1.3 4.7 1.3v-3.6a5.2 5.2 0 0 1-5.2-5.2h-3.7c0 1.8.5 3.5 1.5 5-1 1.3-1.5 3-1.5 4.8A5.1 5.1 0 0 1 9 49a5.2 5.2 0 0 1-.4-5.7l.4-.8-.8-1.7-.8-.2a5.2 5.2 0 0 1-2.2-8.8h8.6a8.8 8.8 0 0 0 8.7 7h5.2v12.3zm0-15.9h-5.2c-2.8 0-5-2.2-5.2-5V30c0-1.4.5-2.7 1.5-3.7l-2.6-2.6a8.8 8.8 0 0 0-2.4 4.5H5.2a5.2 5.2 0 0 1 2.2-8.8l.8-.2.8-1.7-.4-.8a5.2 5.2 0 0 1 5-7.7c0 1.8.6 3.5 1.5 4.9a8.8 8.8 0 0 0-1.5 5h3.7a5.2 5.2 0 0 1 5.2-5.3V10c-1.7 0-3.3.4-4.7 1.3a5.2 5.2 0 0 1-.5-3.3V8a5.2 5.2 0 0 1 10.4 1v26.3zm3.6-26.3a5.2 5.2 0 0 1 10.4-1V8a5.3 5.3 0 0 1-.5 3.3c-1.4-.9-3-1.3-4.7-1.3v3.6a5.2 5.2 0 0 1 5.2 5.2h3.7c0-1.8-.5-3.5-1.5-5 1-1.4 1.5-3 1.5-4.8a5.1 5.1 0 0 1 4.7 2 5.2 5.2 0 0 1 .4 5.7l-.5.8.4.8.4.9.8.2a5.2 5.2 0 0 1 2.2 8.8h-8.6a8.8 8.8 0 0 0-8.6-7h-5.3V8.8zm24 27.6c-.4 2-1.8 3.5-3.7 4l-.8.3-.8 1.7.5.8a5.2 5.2 0 0 1-5 7.7c-.1-1.8-.6-3.5-1.6-4.9 1-1.4 1.5-3.1 1.5-5h-3.7a5.2 5.2 0 0 1-5.2 5.3V50c1.7 0 3.3-.4 4.7-1.3a5.2 5.2 0 0 1 .5 3.3v.1a5.2 5.2 0 0 1-10.4-1V24.8h5.3c2.7 0 5 2.2 5.1 5v.2c0 1.4-.5 2.7-1.5 3.7l2.6 2.6c1.3-1.3 2-2.8 2.4-4.5h8.6c1.2 1.2 1.8 3 1.5 4.7z"
    />
  </symbol>
</svg>
